<svg xmlns="http://www.w3.org/2000/svg" viewBox="0 0 200 200" role="img" aria-label="Kaos">
  <g fill="#000" fill-rule="evenodd">
    <g transform="rotate(0 100 100)"><path d="M100,19 C102,28 103,35 104,42 C106,48 107,53 108,58 L113,64 L106,68 C105,76 104,83 104,90 L96,90 C96,83 95,76 94,68 L87,64 L92,58 C93,53 94,48 96,42 C97,35 98,28 100,19 Z M100,30 L101.2,50 L100,62 L98.8,50 Z"></path></g>
    <g transform="rotate(45 100 100)"><path d="M100,19 C102,28 103,35 104,42 C106,48 107,53 108,58 L113,64 L106,68 C105,76 104,83 104,90 L96,90 C96,83 95,76 94,68 L87,64 L92,58 C93,53 94,48 96,42 C97,35 98,28 100,19 Z M100,30 L101.2,50 L100,62 L98.8,50 Z"></path></g>
    <g transform="rotate(90 100 100)"><path d="M100,19 C102,28 103,35 104,42 C106,48 107,53 108,58 L113,64 L106,68 C105,76 104,83 104,90 L96,90 C96,83 95,76 94,68 L87,64 L92,58 C93,53 94,48 96,42 C97,35 98,28 100,19 Z M100,30 L101.2,50 L100,62 L98.8,50 Z"></path></g>
    <g transform="rotate(135 100 100)"><path d="M100,19 C102,28 103,35 104,42 C106,48 107,53 108,58 L113,64 L106,68 C105,76 104,83 104,90 L96,90 C96,83 95,76 94,68 L87,64 L92,58 C93,53 94,48 96,42 C97,35 98,28 100,19 Z M100,30 L101.2,50 L100,62 L98.8,50 Z"></path></g>
    <g transform="rotate(180 100 100)"><path d="M100,19 C102,28 103,35 104,42 C106,48 107,53 108,58 L113,64 L106,68 C105,76 104,83 104,90 L96,90 C96,83 95,76 94,68 L87,64 L92,58 C93,53 94,48 96,42 C97,35 98,28 100,19 Z M100,30 L101.2,50 L100,62 L98.8,50 Z"></path></g>
    <g transform="rotate(225 100 100)"><path d="M100,19 C102,28 103,35 104,42 C106,48 107,53 108,58 L113,64 L106,68 C105,76 104,83 104,90 L96,90 C96,83 95,76 94,68 L87,64 L92,58 C93,53 94,48 96,42 C97,35 98,28 100,19 Z M100,30 L101.2,50 L100,62 L98.8,50 Z"></path></g>
    <g transform="rotate(270 100 100)"><path d="M100,19 C102,28 103,35 104,42 C106,48 107,53 108,58 L113,64 L106,68 C105,76 104,83 104,90 L96,90 C96,83 95,76 94,68 L87,64 L92,58 C93,53 94,48 96,42 C97,35 98,28 100,19 Z M100,30 L101.2,50 L100,62 L98.8,50 Z"></path></g>
    <g transform="rotate(315 100 100)"><path d="M100,19 C102,28 103,35 104,42 C106,48 107,53 108,58 L113,64 L106,68 C105,76 104,83 104,90 L96,90 C96,83 95,76 94,68 L87,64 L92,58 C93,53 94,48 96,42 C97,35 98,28 100,19 Z M100,30 L101.2,50 L100,62 L98.8,50 Z"></path></g>
    <circle cx="100" cy="100" r="11"></circle>
  </g>
</svg>